<?xml version="1.0" standalone="no"?>
<!DOCTYPE svg PUBLIC "-//W3C//DTD SVG 20010904//EN"
 "http://www.w3.org/TR/2001/REC-SVG-20010904/DTD/svg10.dtd">
<svg width="28" height="40" viewBox="0 0 28 40" fill="none" xmlns="http://www.w3.org/2000/svg">
<path d="M27.6525 32.0409V38.6535C25.9333 37.6255 23.8653 37.0304 21.6411 37.0304C19.8257 37.0304 18.1184 37.4272 16.6156 38.1305C15.5756 38.6174 14.6318 39.2486 13.8263 40.0001C13.0207 39.2486 12.0769 38.6174 11.037 38.1305C9.53412 37.4272 7.82687 37.0304 6.01142 37.0304C3.7872 37.0304 1.71927 37.6255 0 38.6535V32.0409C1.08206 31.3917 2.29636 30.9168 3.60685 30.6583C4.38233 30.502 5.18786 30.4178 6.01142 30.4178C6.62459 30.4178 7.23174 30.4659 7.81485 30.5501C10.1593 30.8988 12.2513 31.9207 13.8263 33.3875C15.4013 31.9207 17.4932 30.8988 19.8377 30.5501C20.4208 30.4659 21.028 30.4178 21.6411 30.4178C22.4647 30.4178 23.2702 30.502 24.0457 30.6583C25.3562 30.9168 26.5705 31.3917 27.6525 32.0409Z" fill="#66E094"/>
<path d="M13.8263 0C6.19177 0 0 6.19177 0 13.8263C0 21.4608 6.19177 27.6525 13.8263 27.6525C21.4608 27.6525 27.6525 21.4608 27.6525 13.8263C27.6525 6.19177 21.4608 0 13.8263 0ZM13.8263 21.04C9.8407 21.04 6.61257 17.8118 6.61257 13.8263C6.61257 9.8407 9.8407 6.61257 13.8263 6.61257C17.8118 6.61257 21.04 9.8407 21.04 13.8263C21.04 17.8118 17.8118 21.04 13.8263 21.04Z" fill="white"/>
</svg>
